<svg xmlns="http://www.w3.org/2000/svg" viewBox="3260.016 42 43.86 39">
  <defs>
    <style>
      .cls-1 {
        fill: #fff;
      }
    </style>
  </defs>
  <path id="Path_913" data-name="Path 913" class="cls-1" d="M6.478,962.362a1.462,1.462,0,1,0,0,2.925H11.14l5.027,23.72c.2.893.784,1.636,1.523,1.63H42.066a1.463,1.463,0,1,0,0-2.925H18.879l-.625-2.925H44.016a1.508,1.508,0,0,0,1.417-1.143l3.413-14.625a1.53,1.53,0,0,0-1.417-1.782H14.553l-.792-3.717a1.509,1.509,0,0,0-1.432-1.158Zm8.684,7.8H45.585l-2.727,11.7H17.645Zm7.4,21.45a4.875,4.875,0,1,0,4.875,4.875A4.9,4.9,0,0,0,22.566,991.612Zm14.625,0a4.875,4.875,0,1,0,4.875,4.875A4.9,4.9,0,0,0,37.191,991.612Zm-14.625,2.925a1.95,1.95,0,1,1-1.95,1.95A1.928,1.928,0,0,1,22.566,994.537Zm14.625,0a1.95,1.95,0,1,1-1.95,1.95A1.928,1.928,0,0,1,37.191,994.537Z" transform="translate(3255 -920.362)"/>
</svg>
