<svg width="40" height="40" viewBox="0 0 40 40" fill="none" xmlns="http://www.w3.org/2000/svg">
<path d="M11.6665 25H14.9998C14.9998 26.8 17.2832 28.3333 19.9998 28.3333C22.7165 28.3333 24.9998 26.8 24.9998 25C24.9998 23.1667 23.2665 22.5 19.5998 21.6167C16.0665 20.7333 11.6665 19.6333 11.6665 15C11.6665 12.0167 14.1165 9.48333 17.4998 8.63333V5H22.4998V8.63333C25.8832 9.48333 28.3332 12.0167 28.3332 15H24.9998C24.9998 13.2 22.7165 11.6667 19.9998 11.6667C17.2832 11.6667 14.9998 13.2 14.9998 15C14.9998 16.8333 16.7332 17.5 20.3998 18.3833C23.9332 19.2667 28.3332 20.3667 28.3332 25C28.3332 27.9833 25.8832 30.5167 22.4998 31.3667V35H17.4998V31.3667C14.1165 30.5167 11.6665 27.9833 11.6665 25Z" fill="#FF8A00"/>
</svg>