<svg width="40" height="40" viewBox="0 0 40 40" fill="none" xmlns="http://www.w3.org/2000/svg">
<path d="M36.6668 29.9999V36.6666H30.0002V31.6666H25.0002V26.6666H20.0002L16.2335 22.8999C15.3168 23.1833 14.3502 23.3333 13.3335 23.3333C10.6813 23.3333 8.13779 22.2797 6.26243 20.4043C4.38706 18.529 3.3335 15.9854 3.3335 13.3333C3.3335 10.6811 4.38706 8.13755 6.26243 6.26218C8.13779 4.38682 10.6813 3.33325 13.3335 3.33325C15.9857 3.33325 18.5292 4.38682 20.4046 6.26218C22.2799 8.13755 23.3335 10.6811 23.3335 13.3333C23.3335 14.3499 23.1835 15.3166 22.9002 16.2333L36.6668 29.9999ZM11.6668 8.33325C10.7828 8.33325 9.93493 8.68444 9.30981 9.30956C8.68469 9.93468 8.3335 10.7825 8.3335 11.6666C8.3335 12.5506 8.68469 13.3985 9.30981 14.0236C9.93493 14.6487 10.7828 14.9999 11.6668 14.9999C12.5509 14.9999 13.3987 14.6487 14.0239 14.0236C14.649 13.3985 15.0002 12.5506 15.0002 11.6666C15.0002 10.7825 14.649 9.93468 14.0239 9.30956C13.3987 8.68444 12.5509 8.33325 11.6668 8.33325Z" fill="#FF8A00"/>
</svg>