<svg width="200" height="92" viewBox="0 0 200 92" fill="none" xmlns="http://www.w3.org/2000/svg">
<path d="M71.7002 55.7724C71.7002 58.9751 73.6839 60.3681 76.2941 61.3219L79.1247 62.335C80.8737 63.0029 81.8716 63.5993 81.8716 65.121C81.8716 66.8673 80.3043 67.6578 78.0737 67.6578C75.7839 67.6578 73.6451 66.8326 71.8655 65.4049V68.867C73.2349 69.8167 75.4594 70.5704 78.0737 70.5704C82.0553 70.5704 85.088 68.6096 85.088 65.0597C85.088 62.239 83.6839 60.5233 80.6288 59.4163L77.4737 58.2765C75.8451 57.7026 74.9186 57.1327 74.9186 55.703C74.9186 54.1221 76.392 53.3643 78.3655 53.3643C80.6573 53.3643 82.441 54.2181 84.0696 55.4579V52.0632C82.5022 51.0522 80.4961 50.4844 78.2961 50.4844C74.7043 50.4823 71.7002 52.3451 71.7002 55.7724Z" fill="#828282"/>
<path d="M97.0104 50.8154H93.6899V70.2744H97.0104V50.8154Z" fill="#828282"/>
<path d="M37.1697 50.8154H33.8452V70.2744H37.1697V50.8154Z" fill="#828282"/>
<path d="M110.033 53.7301H114.094C118.2 53.7301 120.396 56.3547 120.396 60.5398C120.396 64.6963 118.2 67.3291 114.094 67.3291H110.033V53.7301ZM106.716 50.8154V70.2744H114.216C119.99 70.2744 123.72 66.4692 123.72 60.5398C123.72 54.6186 119.988 50.8154 114.216 50.8154H106.716Z" fill="#828282"/>
<path d="M130.737 50.8154V70.2744H142.598V67.3291H133.986V61.2935H141.71V58.4115H133.986V53.728H142.598V50.8154H130.737Z" fill="#828282"/>
<path d="M155.827 53.6689H159.545C161.747 53.6689 162.988 54.8433 162.988 56.6469C162.988 58.4504 161.747 59.6249 159.545 59.6249H155.827V53.6689ZM152.519 50.8155V70.2745H155.827V62.3782H158.182L164.994 70.2725H168.759L161.723 62.2556C164.817 61.7756 166.268 59.9047 166.268 56.6469C166.268 52.8376 163.653 50.8135 159.608 50.8135H152.519V50.8155Z" fill="#828282"/>
<path d="M65.5142 25.8172C65.5142 29.0709 67.506 30.4863 70.1386 31.4524L72.9978 32.4819C74.7652 33.1579 75.7591 33.7707 75.7591 35.3148C75.7591 37.0877 74.1856 37.8904 71.9366 37.8904C69.6244 37.8904 67.4713 37.053 65.6754 35.6049V39.1139C67.055 40.08 69.304 40.8541 71.9366 40.8541C75.9529 40.8541 79.004 38.8586 79.004 35.2515C79.004 32.3859 77.5917 30.6477 74.508 29.5182L71.3284 28.358C69.6897 27.778 68.7591 27.1979 68.7591 25.7498C68.7591 24.1382 70.2366 23.3661 72.2284 23.3661C74.5407 23.3661 76.3386 24.2342 77.9774 25.4904V22.0446C76.404 21.0132 74.3795 20.4331 72.1631 20.4331C68.5346 20.4372 65.5142 22.3388 65.5142 25.8172Z" fill="#828282"/>
<path d="M165.898 25.8027C165.898 29.0544 167.89 30.4719 170.522 31.438L173.382 32.4674C175.149 33.1435 176.143 33.7563 176.143 35.3004C176.143 37.0713 174.569 37.876 172.32 37.876C170.008 37.876 167.855 37.0386 166.057 35.5904V39.1015C167.439 40.0676 169.686 40.8417 172.32 40.8417C176.335 40.8417 179.386 38.8441 179.386 35.2391C179.386 32.3735 177.971 30.6333 174.888 29.5058L171.708 28.3477C170.069 27.7676 169.139 27.1876 169.139 25.7394C169.139 24.1299 170.616 23.3558 172.606 23.3558C174.92 23.3558 176.718 24.2259 178.357 25.4821V22.0363C176.784 21.0049 174.759 20.4248 172.545 20.4248C168.916 20.4248 165.898 22.3243 165.898 25.8027Z" fill="#828282"/>
<path d="M145.725 25.8027C145.725 29.0544 147.716 30.4719 150.349 31.438L153.208 32.4674C154.976 33.1435 155.972 33.7563 155.972 35.3004C155.972 37.0713 154.396 37.876 152.149 37.876C149.837 37.876 147.684 37.0386 145.886 35.5904V39.1015C147.265 40.0676 149.514 40.8417 152.149 40.8417C156.163 40.8417 159.214 38.8441 159.214 35.2391C159.214 32.3735 157.8 30.6333 154.718 29.5058L151.539 28.3477C149.902 27.7676 148.972 27.1876 148.972 25.7394C148.972 24.1299 150.447 23.3558 152.439 23.3558C154.753 23.3558 156.551 24.2259 158.19 25.4821V22.0363C156.616 21.0049 154.592 20.4248 152.378 20.4248C148.745 20.4248 145.725 22.3243 145.725 25.8027Z" fill="#828282"/>
<path d="M126.163 20.7598V40.5333H138.108V37.5431H129.437V31.4074H137.214V28.4804H129.437V23.7214H138.108V20.7598H126.163Z" fill="#828282"/>
<path d="M23.8572 31.8383H28.096C30.345 31.8383 31.5654 32.9331 31.5654 34.7367C31.5654 36.5075 30.345 37.635 28.096 37.635H23.8572V31.8383ZM23.8572 23.6601H27.4858C29.7674 23.6601 30.9878 24.4649 30.9878 26.3317C30.9878 28.1986 29.7674 29.0687 27.4858 29.0687H23.8572V23.6601ZM20.6123 20.7598V40.5333H28.1613C32.2715 40.5333 34.8409 38.5684 34.8409 34.8653C34.8409 32.7718 33.4919 30.9355 31.6286 30.3248C33.0735 29.8081 34.198 28.2619 34.198 26.1377C34.198 22.596 31.6286 20.7598 27.5164 20.7598H20.6123Z" fill="#828282"/>
<path d="M90.9409 20.7598H87.6001V40.5333H90.9409V20.7598Z" fill="#828282"/>
<path d="M54.4696 20.7598V32.2897C54.4696 36.0908 52.8635 37.8617 49.9084 37.8617C46.9533 37.8617 45.3472 36.0908 45.3472 32.2897V20.7598H42.0063V32.6451C42.0063 38.0864 45.2186 40.856 49.9084 40.856C54.6288 40.856 57.8104 38.0864 57.8104 32.6758V20.7598H54.4696Z" fill="#828282"/>
<path d="M114.027 20.7596V33.4027L100.472 20.4512V40.5331H103.69V27.6714L117.237 40.8415V20.7596H114.027Z" fill="#828282"/>
<path d="M46.688 70.2724H49.8819V57.617L63.3288 70.5747V50.8134H60.1431V63.2544L46.688 50.5132V70.2724Z" fill="#828282"/>
</svg>