<svg width="175" height="35" viewBox="0 0 175 35" fill="none" xmlns="http://www.w3.org/2000/svg">
<g clip-path="url(#clip0)">
<path fill-rule="evenodd" clip-rule="evenodd" d="M15.5235 0C15.4044 2.03323 15.2877 4.06646 15.1663 6.16738C14.1299 6.13003 13.1495 6.09502 12.1177 6.06C12.0476 4.77844 11.9776 3.54122 11.9076 2.25733C10.3202 2.25733 8.76086 2.25733 7.16415 2.25733C7.16415 5.28499 7.16415 8.29165 7.16415 11.3497C7.84345 11.3497 8.50875 11.3497 9.21839 11.3497C9.37713 10.689 9.53586 10.0331 9.69927 9.34678C10.4066 9.34678 11.0952 9.34678 11.8165 9.34678C11.8165 11.4524 11.8165 13.5066 11.8165 15.6005C11.1396 15.6005 10.4673 15.6005 9.73662 15.6005C9.56621 14.9282 9.39347 14.2419 9.21372 13.5323C8.52742 13.5323 7.8738 13.5323 7.17116 13.5323C7.17116 16.749 7.17116 19.9448 7.17116 23.1825C8.75385 23.1825 10.3179 23.1825 11.9403 23.1825C12.092 21.8099 12.2437 20.4467 12.4025 19.0087C13.4716 19.0437 14.5127 19.0787 15.6122 19.1161C15.6962 21.2614 15.7779 23.3669 15.862 25.5099C10.6283 25.5099 5.4484 25.5099 0.259114 25.5099C0.259114 24.7629 0.259114 24.0369 0.259114 23.2689C1.01311 23.1405 1.71575 23.0191 2.45108 22.8907C2.45108 16.0907 2.45108 9.31643 2.45108 2.48376C1.61304 2.39505 0.807689 2.30635 0 2.21764C0 1.47998 0 0.744661 0 0C5.17528 0 10.3482 0 15.5235 0Z" fill="#828282"/>
<path fill-rule="evenodd" clip-rule="evenodd" d="M70.7402 34.1611C70.7823 33.5378 70.8196 32.9822 70.857 32.4079C71.4265 32.2819 71.9518 32.1652 72.512 32.0415C72.512 24.7956 72.512 17.5684 72.512 10.2735C71.8771 10.1778 71.2328 10.0798 70.5488 9.97709C70.5488 9.4005 70.5488 8.82625 70.5488 8.15862C72.2436 7.92285 73.9617 7.68475 75.7404 7.4373C75.9272 8.10726 76.1023 8.7282 76.2843 9.38182C76.3567 9.3188 76.4337 9.26511 76.4921 9.19508C77.7597 7.73844 79.3914 7.23655 81.2589 7.41629C83.6002 7.64039 84.8888 9.11804 85.5354 11.2283C85.8225 12.169 86.0163 13.1588 86.091 14.1369C86.245 16.1538 86.2777 18.1824 85.8879 20.1806C85.7432 20.9182 85.5401 21.6606 85.2459 22.3515C84.3449 24.4571 82.6968 25.5683 80.4302 25.7644C79.2723 25.8647 78.1402 25.755 77.0617 25.2741C76.994 25.2438 76.917 25.2345 76.8072 25.2064C76.8072 27.4848 76.8072 29.7328 76.8072 32.0391C77.3652 32.1535 77.9277 32.2702 78.572 32.4033C78.5323 32.9799 78.495 33.5494 78.4553 34.1564C75.8782 34.1611 73.3431 34.1611 70.7402 34.1611ZM76.7769 22.7834C78.1635 23.3716 79.4941 23.402 80.8527 22.9234C81.1235 22.8277 81.2799 22.669 81.3452 22.4076C81.511 21.7306 81.7141 21.0583 81.8144 20.372C82.1132 18.2874 82.0759 16.1888 81.9195 14.0949C81.8658 13.3853 81.7327 12.6663 81.5226 11.987C81.0604 10.5047 80.0543 9.93507 78.5183 10.1872C78.4413 10.1989 78.3666 10.2222 78.2919 10.2385C77.3698 10.4159 76.7816 11.1186 76.7816 12.0617C76.7792 15.4605 76.7792 18.8593 76.7792 22.2582C76.7769 22.4122 76.7769 22.5663 76.7769 22.7834Z" fill="#828282"/>
<path fill-rule="evenodd" clip-rule="evenodd" d="M128.492 23.2947C129.151 23.4254 129.718 23.5398 130.32 23.6612C130.285 24.2915 130.255 24.8844 130.22 25.5123C128.229 25.5123 126.275 25.5123 124.279 25.5123C124.272 25.3793 124.26 25.2485 124.26 25.1201C124.26 21.1704 124.272 17.223 124.251 13.2756C124.249 12.7434 124.125 12.1971 123.961 11.6882C123.763 11.0696 123.27 10.7358 122.633 10.5958C122.019 10.4604 121.417 10.5117 120.859 10.7475C120.367 10.9553 119.972 11.3451 119.97 11.9287C119.958 15.6637 119.967 19.3986 119.97 23.1313C119.97 23.1686 119.988 23.206 120.012 23.3017C120.546 23.4114 121.109 23.5258 121.758 23.6588C121.72 24.2704 121.683 24.8774 121.643 25.517C119.057 25.517 116.519 25.517 113.984 25.517C113.984 24.8914 113.984 24.2985 113.984 23.6705C114.573 23.5445 115.117 23.4277 115.693 23.304C115.693 19.0391 115.693 14.7859 115.693 10.4604C115.065 10.388 114.421 10.3156 113.739 10.2363C113.739 9.61533 113.739 9.00373 113.739 8.3431C115.404 8.105 117.052 7.86923 118.788 7.62178C118.943 8.18436 119.094 8.7306 119.239 9.26517C119.622 8.97571 120.016 8.63256 120.453 8.35711C122.122 7.29731 123.919 7.11523 125.757 7.78285C127.302 8.3431 128.11 9.56631 128.378 11.1537C128.453 11.5925 128.481 12.0431 128.483 12.4889C128.492 15.8737 128.488 19.2586 128.488 22.6434C128.492 22.8465 128.492 23.0566 128.492 23.2947Z" fill="#828282"/>
<path fill-rule="evenodd" clip-rule="evenodd" d="M23.3622 23.2995C23.9808 23.4256 24.5293 23.5376 25.1223 23.6567C25.0849 24.2846 25.0499 24.8799 25.0126 25.5102C22.4308 25.5102 19.898 25.5102 17.2742 25.5102C17.3068 24.9009 17.3372 24.3103 17.3722 23.6637C17.9301 23.5423 18.474 23.4232 19.0133 23.3065C19.1346 22.8887 19.1673 11.1072 19.0366 10.4512C18.4087 10.3812 17.762 10.3088 17.0874 10.2318C17.0874 9.61317 17.0874 9.01557 17.0874 8.34328C18.7425 8.10517 20.4045 7.86707 22.1483 7.61729C22.3 8.17754 22.4471 8.70977 22.6082 9.30037C22.7506 9.17431 22.9093 9.02725 23.075 8.88718C24.6928 7.52158 26.5509 7.11074 28.5841 7.60562C30.3489 8.03514 31.3597 9.23734 31.7168 10.9928C31.8079 11.4456 31.8406 11.9195 31.8429 12.3817C31.8522 15.7852 31.8476 19.1864 31.8476 22.5899C31.8476 22.8186 31.8476 23.0474 31.8476 23.2925C32.4732 23.4162 33.0381 23.526 33.6684 23.6497C33.6544 23.9601 33.6334 24.2613 33.6264 24.5647C33.6193 24.8706 33.624 25.1787 33.624 25.5125C31.6071 25.5125 29.6719 25.5125 27.6457 25.5125C27.6457 25.2861 27.6457 25.062 27.6457 24.8379C27.6457 21.1052 27.6481 17.3702 27.641 13.6376C27.641 13.1917 27.6037 12.7435 27.5337 12.3024C27.3726 11.2682 26.7633 10.6566 25.7199 10.5563C24.9635 10.4839 24.2002 10.5026 23.647 11.1842C23.4275 11.4526 23.3225 11.7258 23.3248 12.0829C23.3388 14.9215 23.3318 17.7601 23.3318 20.601C23.3318 21.3013 23.3295 22.0016 23.3318 22.7019C23.3342 22.891 23.3505 23.0824 23.3622 23.2995Z" fill="#828282"/>
<path fill-rule="evenodd" clip-rule="evenodd" d="M155.826 9.97912C155.179 9.91375 154.544 9.85306 153.863 9.78536C153.863 9.24379 153.863 8.71156 153.863 8.11863C155.777 7.8992 157.7 7.67977 159.64 7.46034C159.876 8.18166 160.128 8.83762 160.126 9.57994C160.109 13.9172 160.116 18.2544 160.116 22.5917C160.116 22.8204 160.116 23.0492 160.116 23.2943C160.737 23.4227 161.3 23.5371 161.912 23.6631C161.846 24.2911 161.786 24.8817 161.722 25.5096C160.065 25.5096 158.44 25.5096 156.748 25.5096C156.606 25.0731 156.452 24.6039 156.279 24.0763C156.115 24.2024 155.994 24.2864 155.887 24.3845C153.856 26.2403 151.129 26.0512 149.397 25.2108C148.055 24.5595 147.326 23.425 147.074 21.9824C146.99 21.5062 146.955 21.016 146.955 20.5328C146.946 17.2647 146.951 13.9989 146.951 10.7308C146.951 10.502 146.951 10.2709 146.951 9.99779C146.269 9.92309 145.641 9.8554 144.98 9.78536C144.98 9.24146 144.98 8.72557 144.98 8.12564C146.869 7.90621 148.769 7.68678 150.732 7.45801C150.891 8.11396 151.171 8.70222 151.171 9.38152C151.162 12.8037 151.162 16.2282 151.171 19.6504C151.171 20.1149 151.202 20.5818 151.262 21.044C151.428 22.2999 152.236 23.0445 153.494 23.0655C153.933 23.0725 154.383 22.9862 154.813 22.8811C155.284 22.7667 155.882 21.9567 155.882 21.4828C155.884 17.7105 155.882 13.9359 155.88 10.1635C155.882 10.1238 155.861 10.0888 155.826 9.97912Z" fill="#828282"/>
<path fill-rule="evenodd" clip-rule="evenodd" d="M61.1203 17.7111C61.118 19.1654 61.3444 20.4517 62.1194 21.5862C62.8128 22.5993 63.7675 23.1292 65.0187 23.1502C66.1882 23.1689 67.2947 22.9378 68.3639 22.4849C68.5039 22.4265 68.6487 22.3729 68.8447 22.2958C69.0805 22.8351 69.3116 23.3626 69.5707 23.9579C69.2556 24.1726 68.9545 24.4154 68.623 24.5952C66.4684 25.7577 64.2017 26.1615 61.8183 25.4635C59.8201 24.88 58.5105 23.498 57.6492 21.6609C56.6991 19.6346 56.4866 17.487 56.6687 15.2834C56.7808 13.9388 57.0726 12.6339 57.6445 11.4037C58.5736 9.40548 60.0279 8.01187 62.2362 7.54733C64.3441 7.1038 66.3073 7.37225 67.9273 8.93394C68.8891 9.86301 69.4213 11.0465 69.7902 12.3118C70.1683 13.6097 70.3014 14.9449 70.3061 16.2848C70.3084 16.7237 70.0493 17.1602 69.9092 17.6061C66.9586 17.6388 64.0686 17.6738 61.1203 17.7111ZM66.4263 15.4141C66.3797 14.8749 66.354 14.429 66.3003 13.9902C66.1719 12.9467 65.9758 11.9173 65.4482 10.9882C64.8693 9.96806 63.9916 9.65059 62.8805 10.0077C62.4439 10.1501 62.1545 10.3952 61.9794 10.8271C61.3981 12.2651 61.1087 13.7591 61.0386 15.3021C61.034 15.4095 61.076 15.5168 61.104 15.6616C62.8664 15.5799 64.6032 15.4982 66.4263 15.4141Z" fill="#828282"/>
<path fill-rule="evenodd" clip-rule="evenodd" d="M144.242 17.6033C141.257 17.6384 138.383 17.6734 135.463 17.7107C135.395 18.3433 135.495 18.9293 135.607 19.5128C135.78 20.4022 136.107 21.2216 136.7 21.9242C137.365 22.7133 138.21 23.1124 139.24 23.1474C140.365 23.1871 141.443 22.9934 142.485 22.5662C142.697 22.4775 142.914 22.4004 143.175 22.3001C143.411 22.8486 143.638 23.3762 143.899 23.9855C143.803 24.0485 143.705 24.1092 143.612 24.1769C141.745 25.4795 139.651 25.9884 137.417 25.7432C134.662 25.4398 132.82 23.8197 131.824 21.3126C130.533 18.0655 130.589 14.7694 131.917 11.541C132.771 9.46809 134.277 8.03713 136.532 7.55392C138.299 7.17575 140.01 7.2878 141.558 8.35693C142.657 9.1156 143.327 10.1917 143.801 11.4056C144.41 12.965 144.644 14.599 144.606 16.2611C144.597 16.6999 144.373 17.1411 144.242 17.6033ZM140.738 15.416C140.685 14.1905 140.547 13.0653 140.202 11.9705C140.024 11.4103 139.749 10.9131 139.387 10.4439C138.696 9.55213 136.555 9.73187 136.226 10.9551C135.96 11.9448 135.624 12.9136 135.488 13.9361C135.414 14.487 135.313 15.0379 135.421 15.6635C137.183 15.5794 138.918 15.5001 140.738 15.416Z" fill="#828282"/>
<path fill-rule="evenodd" clip-rule="evenodd" d="M113.002 17.6037C110.039 17.6411 107.15 17.6761 104.215 17.7111C104.232 19.2915 104.481 20.7201 105.478 21.9199C106.12 22.6903 106.946 23.1011 107.96 23.1408C109.103 23.1875 110.203 22.9984 111.263 22.5642C111.475 22.4779 111.69 22.3938 111.947 22.2911C112.182 22.835 112.409 23.3626 112.661 23.9438C112.458 24.0932 112.269 24.2543 112.061 24.3827C110.044 25.6456 107.845 26.0798 105.525 25.6292C103.356 25.2091 101.844 23.8551 100.868 21.9083C99.8757 19.9287 99.5932 17.8091 99.745 15.6172C99.8453 14.1535 100.125 12.7296 100.746 11.3896C101.477 9.82096 102.539 8.55573 104.183 7.90911C106.108 7.15045 108.048 7.07575 109.92 8.08886C111.151 8.75415 111.923 9.8443 112.463 11.1072C113.163 12.7436 113.396 14.4757 113.394 16.2334C113.396 16.6956 113.137 17.1532 113.002 17.6037ZM109.521 15.4117C109.468 14.8258 109.44 14.3076 109.372 13.7964C109.243 12.8323 109.052 11.8822 108.564 11.0232C107.932 9.90966 106.979 9.58985 105.796 10.0707C105.497 10.1921 105.284 10.3765 105.147 10.6847C104.628 11.8285 104.372 13.0377 104.225 14.2726C104.173 14.7068 104.148 15.1456 104.101 15.6662C105.945 15.5798 107.696 15.4958 109.521 15.4117Z" fill="#828282"/>
<path fill-rule="evenodd" clip-rule="evenodd" d="M49.5517 7.61943C49.6871 8.15866 49.8108 8.65822 49.9462 9.19979C50.1516 9.07607 50.3594 8.94534 50.5695 8.82162C51.7997 8.10264 53.1396 7.75949 54.5495 7.60542C55.2312 7.53072 55.7144 7.75015 56.1066 8.32207C55.9338 9.87208 55.7564 11.4501 55.5743 13.0818C54.5962 13.0421 53.6718 13.0048 52.7147 12.9651C52.6074 12.0944 52.507 11.2727 52.4019 10.416C51.7063 10.472 51.125 10.6844 50.5788 11.0509C50.5788 15.1337 50.5788 19.1932 50.5788 23.3063C51.1531 23.437 51.732 23.5678 52.3506 23.7078C52.3179 24.3054 52.2852 24.8773 52.2502 25.496C49.6917 25.496 47.159 25.496 44.6075 25.496C44.6075 24.9077 44.6075 24.3334 44.6075 23.7195C45.1538 23.5794 45.6743 23.4464 46.2042 23.311C46.2042 19.0204 46.2042 14.7486 46.2042 10.444C45.5833 10.3716 44.9927 10.3039 44.3647 10.2316C44.3647 9.6013 44.3647 8.99203 44.3647 8.33607C46.0922 8.1003 47.7963 7.86453 49.5517 7.61943Z" fill="#828282"/>
<path fill-rule="evenodd" clip-rule="evenodd" d="M162.99 25.5191C163.018 24.8912 163.044 24.3146 163.072 23.7124C163.604 23.5816 164.111 23.4556 164.657 23.3202C164.657 19.0576 164.657 14.7904 164.657 10.4555C164.066 10.3832 163.459 10.3108 162.785 10.2291C162.785 9.90694 162.785 9.60114 162.785 9.29768C162.785 8.99188 162.785 8.68374 162.785 8.34059C164.549 8.09781 166.254 7.86204 167.993 7.62161C168.133 8.16551 168.259 8.66273 168.375 9.1226C169.111 8.78412 169.823 8.38027 170.586 8.12816C171.335 7.87838 172.134 7.77567 172.911 7.62161C173.586 7.48621 174.134 7.68697 174.548 8.33125C174.377 9.84858 174.202 11.4266 174.018 13.077C173.061 13.042 172.136 13.007 171.163 12.9696C171.053 12.0966 170.948 11.2585 170.829 10.3271C170.196 10.5489 169.617 10.7496 169.029 10.9551C169.029 15.0986 169.029 19.1744 169.029 23.3155C169.592 23.4439 170.171 23.5746 170.799 23.717C170.761 24.317 170.724 24.9075 170.684 25.5191C168.107 25.5191 165.586 25.5191 162.99 25.5191Z" fill="#828282"/>
<path fill-rule="evenodd" clip-rule="evenodd" d="M95.4915 10.3132C94.8145 10.5629 94.2426 10.773 93.6707 10.9831C93.6707 15.1453 93.6707 19.2211 93.6707 23.3155C94.2776 23.4509 94.8589 23.5817 95.4775 23.7194C95.4261 24.331 95.3794 24.9052 95.3281 25.5122C92.7766 25.5122 90.2602 25.5122 87.7018 25.5122C87.7018 24.9333 87.7018 24.3637 87.7018 23.7287C88.248 23.591 88.7686 23.4579 89.3218 23.3179C89.3218 19.0437 89.3218 14.7764 89.3218 10.4509C88.7032 10.3785 88.0963 10.3085 87.459 10.2361C87.459 9.61751 87.459 9.02225 87.459 8.34529C89.1514 8.10718 90.8555 7.86908 92.6296 7.6193C92.779 8.13753 92.9237 8.64875 93.0684 9.15531C93.5703 8.89386 94.0605 8.61841 94.5671 8.37797C95.5078 7.92977 96.5209 7.75936 97.5457 7.61697C98.225 7.52359 98.7643 7.68933 99.2078 8.31027C99.042 9.82994 98.8693 11.408 98.6849 13.077C97.7301 13.042 96.7917 13.007 95.8183 12.972C95.7109 12.0989 95.6106 11.2772 95.4915 10.3132Z" fill="#828282"/>
<path fill-rule="evenodd" clip-rule="evenodd" d="M39.7844 4.21582C39.7844 5.43903 39.7844 6.5992 39.7844 7.83408C40.8465 7.83408 41.8619 7.83408 42.9638 7.83408C42.8937 8.63943 42.8307 9.35842 42.7653 10.1054C41.7896 10.2175 40.8675 10.3225 39.9081 10.4322C39.8871 10.598 39.8521 10.745 39.8521 10.8944C39.8544 14.3726 39.8591 17.8532 39.8637 21.3314C39.8637 21.5648 39.8661 21.7982 39.8964 22.0293C39.9968 22.7576 40.4987 23.2128 41.2363 23.2362C41.8152 23.2525 42.3965 23.2385 43.0455 23.2385C43.1108 23.8851 43.1738 24.4944 43.2345 25.1107C42.7793 25.4188 42.2821 25.5005 41.7919 25.5939C40.7158 25.7993 39.6373 25.8764 38.5495 25.6873C36.8898 25.4001 35.8066 24.2773 35.6129 22.6082C35.5732 22.2628 35.5708 21.9103 35.5708 21.5601C35.5685 18.0609 35.5685 14.564 35.5662 11.0648C35.5662 10.8571 35.5382 10.6493 35.5241 10.4322C34.8472 10.3202 34.2192 10.2151 33.5166 10.0984C33.5493 9.37476 33.582 8.66511 33.617 7.88543C34.364 7.84809 35.0923 7.81307 35.879 7.77572C36.2128 6.64589 36.5466 5.51839 36.8874 4.36755C37.8398 4.3162 38.7666 4.26951 39.7844 4.21582Z" fill="#828282"/>
<path d="M175 24.4171C175 25.1244 174.344 25.6893 173.513 25.6893C172.682 25.6893 172.017 25.1221 172.017 24.4171C172.017 23.7191 172.68 23.1519 173.513 23.1519C174.346 23.1519 175 23.7168 175 24.4171ZM172.462 24.4241C172.462 24.954 172.908 25.3742 173.513 25.3742C174.118 25.3742 174.563 24.954 174.563 24.4171C174.563 23.8942 174.118 23.467 173.504 23.467C172.908 23.467 172.462 23.8942 172.462 24.4241ZM173.329 25.0193H172.918V23.8498C173.011 23.8358 173.228 23.8125 173.506 23.8125C173.809 23.8125 173.942 23.8498 174.043 23.9012C174.127 23.9525 174.185 24.0412 174.185 24.158C174.185 24.2747 174.059 24.3797 173.875 24.4217V24.4358C174.027 24.4801 174.111 24.5688 174.153 24.7369C174.195 24.9073 174.22 24.9727 174.246 25.017H173.784C173.742 24.9727 173.716 24.8699 173.69 24.7672C173.665 24.6505 173.597 24.5898 173.464 24.5898H173.329V25.0193ZM173.345 24.3494H173.462C173.613 24.3494 173.714 24.298 173.714 24.2093C173.714 24.1136 173.62 24.0623 173.478 24.0623C173.427 24.0623 173.378 24.0693 173.343 24.0693V24.3494H173.345Z" fill="#828282"/>
</g>
<defs>
<clipPath id="clip0">
<rect width="175" height="34.161" fill="white"/>
</clipPath>
</defs>
</svg>