<svg width="200" height="78" viewBox="0 0 200 78" fill="none" xmlns="http://www.w3.org/2000/svg">
<path d="M117.068 27.4636C114.552 27.4636 112.577 28.005 110.6 29.0857C110.6 23.3166 110.6 18.0889 110.781 16.2866L98.7419 18.4491V19.5309L99.9994 19.711C101.615 20.0713 102.157 20.9719 102.512 23.1365C102.875 27.4636 102.693 50.541 102.512 54.3278C105.747 55.0493 109.161 55.5907 112.576 55.5907C122.099 55.5907 127.848 49.6404 127.848 40.2647C127.848 32.8735 123.177 27.4636 117.068 27.4636ZM112.935 53.6062C112.216 53.6062 111.316 53.6062 110.779 53.4272C110.598 50.9034 110.42 40.2647 110.598 30.89C111.676 30.5288 112.394 30.3486 113.294 30.3486C117.249 30.3486 119.405 35.036 119.405 40.804C119.404 48.0183 116.709 53.6062 112.935 53.6062ZM53.4621 17.0071H21.8389V18.6292L23.6359 18.8094C25.9705 19.1696 26.8701 20.6116 27.228 24.0371C27.7686 30.5277 27.5881 42.2481 27.228 47.835C26.869 51.2615 25.9715 52.8847 23.6359 53.0628L21.8389 53.4251V54.8671H42.1421V53.4251L39.9861 53.0628C37.6505 52.8837 36.7519 51.2615 36.3929 47.835C36.2124 45.4903 36.0329 41.7036 36.0329 37.0173L40.3451 37.1974C43.0407 37.1974 44.2972 39.361 44.8367 42.4251H46.4543V29.6281H44.8367C44.2962 32.6933 43.0407 34.8558 40.3451 34.8558L36.0339 35.037C36.0339 28.9066 36.2134 23.1375 36.394 19.7121H42.6817C47.5344 19.7121 50.0495 22.7762 51.8456 28.1861L53.6426 27.6447L53.4621 17.0071Z" fill="#828282"/>
<path d="M63.704 27.1034C72.6884 27.1034 77.18 33.2338 77.18 41.3466C77.18 49.0991 72.1488 55.5918 63.1644 55.5918C54.1811 55.5918 49.6895 49.4604 49.6895 41.3466C49.6895 33.594 54.7196 27.1034 63.704 27.1034ZM63.1644 28.9067C59.2113 28.9067 58.1332 34.3156 58.1332 41.3466C58.1332 48.1974 59.9303 53.7864 63.5245 53.7864C67.654 53.7864 68.7342 48.3776 68.7342 41.3466C68.7342 34.4957 66.9391 28.9067 63.1644 28.9067ZM130.183 41.5277C130.183 34.1354 134.854 27.1034 144.018 27.1034C151.562 27.1034 155.157 32.6934 155.157 40.0847H138.447C138.266 46.7554 141.5 51.6239 147.97 51.6239C150.845 51.6239 152.282 50.9045 154.08 49.6415L154.797 50.5421C153 53.0659 149.048 55.5918 144.018 55.5918C135.932 55.5908 130.183 49.8217 130.183 41.5277ZM138.447 38.1023L146.892 37.9211C146.892 34.3156 146.352 28.9067 143.298 28.9067C140.245 28.9067 138.625 33.9543 138.447 38.1023ZM176.541 28.5464C174.385 27.6438 171.511 27.1034 168.277 27.1034C161.63 27.1034 157.496 31.0692 157.496 35.7576C157.496 40.4459 160.547 42.4283 164.865 43.8714C169.355 45.4925 170.614 46.7554 170.614 48.919C170.614 51.0825 168.996 53.0649 166.121 53.0649C162.708 53.0649 160.191 51.0825 158.216 45.6726L156.957 46.0349L157.138 53.9676C159.294 54.8682 163.246 55.5908 166.661 55.5908C173.668 55.5908 178.161 51.9831 178.161 46.3952C178.161 42.6085 176.183 40.4459 171.512 38.6416C166.48 36.6592 164.685 35.3973 164.685 33.0526C164.685 30.7089 166.305 29.0858 168.461 29.0858C171.693 29.0858 173.849 31.0692 175.469 35.9377L176.725 35.5774L176.541 28.5464ZM100.537 27.8249C97.4833 26.0237 92.0921 26.9233 89.218 33.4149L89.3964 27.1044L77.3595 29.4481V30.5299L78.6171 30.71C80.2357 30.8912 80.9527 31.7918 81.1332 34.1365C81.4922 38.4636 81.3127 46.037 81.1332 49.8227C80.9527 51.9842 80.2357 53.0659 78.6171 53.2471L77.3595 53.4283V54.8703H94.0686V53.4283L91.9126 53.2471C90.1165 53.0659 89.577 51.9842 89.3964 49.8227C89.0374 46.3962 89.0374 39.5453 89.218 35.2182C90.1155 33.9553 94.0686 32.8746 97.6618 35.2182L100.537 27.8249Z" fill="#828282"/>
</svg>