<svg width="175" height="61" viewBox="0 0 175 61" fill="none" xmlns="http://www.w3.org/2000/svg">
<g clip-path="url(#clip0)">
<path d="M0 13.9205H7.71591V46.4545H0V59.3409H41.2841V46.4545H33.4886V13.9205H41.2841V0H0V13.9205Z" fill="#828282"/>
<path d="M104.841 46.4545V29.3523C104.841 18.4545 96.8862 14.4773 87.0226 14.4773C80.0226 14.4773 74.693 16.3864 70.0794 21.7159C69.7612 22.1136 69.3635 22.5909 68.8862 22.9886V14H43.4316V26.9659H49.2385V46.4545H43.4316V59.4205H75.7271V46.4545H69.6021V35.2386C69.6021 30.4659 73.1816 26.9659 77.9544 26.9659C81.693 26.9659 84.6362 28.7955 84.6362 32.8523V46.375H78.6703V59.3409H110.25V46.6136C110.25 46.5341 110.17 46.4545 110.17 46.375H104.841V46.4545Z" fill="#828282"/>
<path d="M161.636 42.6365H144.852H144.295C144.295 47.4092 140.795 49.6365 136.898 49.6365C129.42 49.6365 128.784 43.3524 128.784 37.3865V37.2274C128.784 31.2615 129.341 24.9774 136.898 24.9774C142.784 24.9774 143.818 30.0683 143.977 34.9205L161.398 33.0115C159.568 15.2728 142.068 14.1592 137.693 14.1592C137.057 14.1592 136.738 14.1592 136.738 14.1592C122.341 14.1592 108.182 21.2387 108.182 37.3069C108.182 40.7274 108.818 43.7501 110.011 46.3751H110.091V46.6137C114.386 56.1592 125.523 60.4546 136.738 60.4546C145.886 60.4546 158.693 58.2274 161.557 44.1478L161.636 42.6365Z" fill="#828282"/>
<path d="M167.602 59.5797C171.644 59.5797 174.921 56.3033 174.921 52.2615C174.921 48.2198 171.644 44.9434 167.602 44.9434C163.561 44.9434 160.284 48.2198 160.284 52.2615C160.284 56.3033 163.561 59.5797 167.602 59.5797Z" fill="#828282"/>
</g>
<defs>
<clipPath id="clip0">
<rect width="175" height="60.4545" fill="white"/>
</clipPath>
</defs>
</svg>