<svg width="175" height="41" viewBox="0 0 175 41" fill="none" xmlns="http://www.w3.org/2000/svg">
<g clip-path="url(#clip0)">
<path d="M20.4844 40.9688C31.7976 40.9688 40.9688 31.7976 40.9688 20.4844C40.9688 9.17118 31.7976 0 20.4844 0C9.17118 0 0 9.17118 0 20.4844C0 31.7976 9.17118 40.9688 20.4844 40.9688Z" fill="#828282"/>
<path d="M23.2157 10.2422H13.3149V30.7266H17.4118V24.5813H23.2157C27.1761 24.5813 30.3853 21.3721 30.3853 17.4117C30.3853 13.4514 27.1761 10.2422 23.2157 10.2422ZM23.2157 20.4844H17.4118V14.3391H23.2157C24.9125 14.3391 26.2884 15.7149 26.2884 17.4117C26.2884 19.1085 24.9125 20.4844 23.2157 20.4844Z" fill="#F5F5F9"/>
<path d="M54.625 27.3125V13.6562H60.8983C63.8157 13.6562 65.4032 15.6279 65.4032 17.9802C65.4032 20.3137 63.7952 22.2836 60.8983 22.2836H57.4809V27.3125H54.625ZM62.4893 17.9802C62.4893 16.8535 61.6238 16.169 60.4972 16.169H57.4809V19.7691H60.4972C61.6221 19.7708 62.4893 19.0863 62.4893 17.9802Z" fill="#828282"/>
<path d="M67.1411 27.3123V17.3569H69.6948V18.6645C70.3998 17.8195 71.5862 17.1162 72.7931 17.1162V19.6102C72.6122 19.5692 72.3902 19.5504 72.0881 19.5504C71.2431 19.5504 70.1165 20.0335 69.6931 20.6566V27.314H67.1411V27.3123Z" fill="#828282"/>
<path d="M73.7607 22.2034C73.7607 19.4483 75.6914 17.1147 78.8904 17.1147C82.1081 17.1147 84.0388 19.4483 84.0388 22.2034C84.0388 24.9586 82.1081 27.3126 78.8904 27.3126C75.6914 27.3126 73.7607 24.9586 73.7607 22.2034ZM81.3844 22.2034C81.3844 20.6944 80.4984 19.3868 78.8904 19.3868C77.2994 19.3868 76.4152 20.6944 76.4152 22.2034C76.4152 23.7329 77.2994 25.0388 78.8904 25.0388C80.4984 25.0388 81.3844 23.7329 81.3844 22.2034Z" fill="#828282"/>
<path d="M92.632 27.3125V25.824C91.8673 26.7902 90.8226 27.3125 89.6345 27.3125C87.2003 27.3125 85.3311 25.4621 85.3311 22.2034C85.3311 19.0454 87.1627 17.1147 89.6345 17.1147C90.7816 17.1147 91.8673 17.5978 92.632 18.6032V13.6562H95.2062V27.3125H92.632ZM92.632 23.9326V20.4929C92.2087 19.8494 91.2835 19.3868 90.4385 19.3868C88.9704 19.3868 87.965 20.5339 87.965 22.2034C87.965 23.8933 88.9704 25.0388 90.4385 25.0388C91.2852 25.0388 92.2104 24.5761 92.632 23.9326Z" fill="#828282"/>
<path d="M104.305 27.3123V25.8443C103.641 26.5681 102.475 27.3123 100.888 27.3123C98.7554 27.3123 97.75 26.1447 97.75 24.2551V17.3569H100.304V23.2496C100.304 24.5982 101.009 25.0403 102.094 25.0403C103.081 25.0403 103.865 24.4975 104.307 23.9341V17.3569H106.862V27.3123H104.305Z" fill="#828282"/>
<path d="M108.777 22.2034C108.777 19.2263 110.949 17.1147 113.926 17.1147C115.918 17.1147 117.125 17.9802 117.768 18.8645L116.097 20.4332C115.634 19.7487 114.931 19.3868 114.047 19.3868C112.497 19.3868 111.411 20.5135 111.411 22.2034C111.411 23.8934 112.497 25.0388 114.047 25.0388C114.931 25.0388 115.636 24.6359 116.097 23.9719L117.768 25.5407C117.125 26.4266 115.918 27.3109 113.926 27.3109C110.949 27.3126 108.777 25.201 108.777 22.2034Z" fill="#828282"/>
<path d="M119.963 24.6376V19.5899H118.355V17.3571H119.963V14.7026H122.519V17.3571H124.489V19.5899H122.519V23.9548C122.519 24.5778 122.84 25.0404 123.403 25.0404C123.786 25.0404 124.149 24.8988 124.287 24.7383L124.832 26.6894C124.45 27.0326 123.765 27.3142 122.7 27.3142C120.909 27.3125 119.963 26.3873 119.963 24.6376Z" fill="#828282"/>
<path d="M140.849 27.3125V21.4198H134.512V27.3125H131.658V13.6562H134.512V18.9259H140.849V13.6562H143.725V27.3125H140.849Z" fill="#828282"/>
<path d="M152.865 27.3123V25.8443C152.201 26.5681 151.035 27.3123 149.447 27.3123C147.315 27.3123 146.31 26.1447 146.31 24.2551V17.3569H148.863V23.2496C148.863 24.5982 149.568 25.0403 150.654 25.0403C151.641 25.0403 152.424 24.4975 152.866 23.9341V17.3569H155.422V27.3123H152.865Z" fill="#828282"/>
<path d="M164.516 27.3123V21.1977C164.516 19.8492 163.812 19.3866 162.725 19.3866C161.72 19.3866 160.957 19.9499 160.513 20.5132V27.3123H157.959V17.3569H160.513V18.6047C161.137 17.881 162.344 17.1162 163.913 17.1162C166.066 17.1162 167.09 18.3231 167.09 20.2128V27.3123H164.516Z" fill="#828282"/>
<path d="M170.133 24.6376V19.5899H168.525V17.3571H170.133V14.7026H172.688V17.3571H174.658V19.5899H172.688V23.9548C172.688 24.5778 173.009 25.0404 173.573 25.0404C173.955 25.0404 174.317 24.8988 174.459 24.7383L175.001 26.6894C174.619 27.0326 173.934 27.3142 172.869 27.3142C171.079 27.3125 170.133 26.3873 170.133 24.6376Z" fill="#828282"/>
</g>
<defs>
<clipPath id="clip0">
<rect width="175" height="40.9688" fill="white"/>
</clipPath>
</defs>
</svg>